<svg width="16" height="16" viewBox="0 0 16 16" fill="none" xmlns="http://www.w3.org/2000/svg">
  <!-- 书签图标 - 简洁现代的设计 -->
  <defs>
    <linearGradient id="bookmarkGrad" x1="0%" y1="0%" x2="0%" y2="100%">
      <stop offset="0%" style="stop-color:#4A90E2;stop-opacity:1" />
      <stop offset="100%" style="stop-color:#357ABD;stop-opacity:1" />
    </linearGradient>
  </defs>
  <!-- 书签主体 -->
  <path d="M3 2.5C3 1.67157 3.67157 1 4.5 1H11.5C12.3284 1 13 1.67157 13 2.5V14.5C13 14.7652 12.8946 15.0196 12.7071 15.2071C12.5196 15.3946 12.2652 15.5 12 15.5C11.7348 15.5 11.4804 15.3946 11.2929 15.2071L8 11.9142L4.70711 15.2071C4.51957 15.3946 4.26522 15.5 4 15.5C3.73478 15.5 3.48043 15.3946 3.29289 15.2071C3.10536 15.0196 3 14.7652 3 14.5V2.5Z" 
        fill="url(#bookmarkGrad)" 
        stroke="#2E5C8A" 
        stroke-width="0.5"/>
  <!-- 书签内容线条 -->
  <path d="M5 4H11M5 6H11M5 8H9" 
        stroke="#FFFFFF" 
        stroke-width="0.7" 
        stroke-linecap="round" 
        opacity="0.85"/>
  <!-- 收藏标记 - 小星星 -->
  <path d="M10 8.5L10.5 9.5L11.5 9.7L10.7 10.5L10.9 11.5L10 11L9.1 11.5L9.3 10.5L8.5 9.7L9.5 9.5L10 8.5Z" 
        fill="#FFD700" 
        opacity="0.9"/>
</svg>
